<?xml version="1.0" encoding="UTF-8" standalone="no"?>
<!DOCTYPE svg PUBLIC "-//W3C//DTD SVG 1.1//EN" "http://www.w3.org/Graphics/SVG/1.1/DTD/svg11.dtd">
<svg width="100%" height="100%" viewBox="0 0 500 208" version="1.1" xmlns="http://www.w3.org/2000/svg" xmlns:xlink="http://www.w3.org/1999/xlink" xml:space="preserve" style="fill-rule:evenodd;clip-rule:evenodd;stroke-linejoin:round;stroke-miterlimit:1.41421;">
    <g transform="matrix(1,0,0,1,0,-1765.86)">
        <path d="M500,1973.46L0,1973.46L0,1947.87L500,1947.87L500,1973.46ZM485.319,1945.3L0,1945.3L0,1765.86L500,1765.86L500,1772.15L0,1772.15L0,1773.46L500,1773.46L500,1776.37L0.248,1776.37L0.248,1778.94L500,1778.94L500,1945.3L499.501,1945.3L499.501,1942.71L498.433,1942.71L498.433,1945.3L496.464,1945.3L496.464,1940L495.396,1940L495.396,1945.3L493.105,1945.3L493.105,1935.75L492.037,1935.75L492.037,1945.3L489.746,1945.3L489.746,1928.95L488.678,1928.95L488.678,1945.3L486.387,1945.3L486.387,1918.08L485.319,1918.08L485.319,1945.3Z" style="fill:rgb(48,49,57);fill-opacity:0.05;"/>
    </g>
</svg>
